<?xml version="1.0" encoding="UTF-8"?>
<svg width="1200" height="630" viewBox="0 0 1200 630" xmlns="http://www.w3.org/2000/svg">
    <!-- 背景 -->
    <rect x="0" y="0" width="1200" height="630" fill="#0a713a" />
    
    <!-- 标题 -->
    <text x="600" y="120" font-family="Arial, sans-serif" font-size="80" font-weight="bold" fill="#ffffff" text-anchor="middle" dominant-baseline="middle">经典扫雷2025</text>
    
    <!-- 中央游戏板 -->
    <g transform="translate(300, 165)">
        <!-- 扫雷网格 - 放大版 -->
        <g fill="#a7d948" stroke="#4a752c" stroke-width="5">
            <rect x="40" y="60" width="100" height="100" />
            <rect x="140" y="60" width="100" height="100" />
            <rect x="240" y="60" width="100" height="100" />
            <rect x="340" y="60" width="100" height="100" />
            <rect x="440" y="60" width="100" height="100" />
            
            <rect x="40" y="160" width="100" height="100" />
            <rect x="140" y="160" width="100" height="100" />
            <rect x="240" y="160" width="100" height="100" />
            <rect x="340" y="160" width="100" height="100" />
            <rect x="440" y="160" width="100" height="100" />
            
            <rect x="40" y="260" width="100" height="100" />
            <rect x="140" y="260" width="100" height="100" />
            <rect x="240" y="260" width="100" height="100" />
            <rect x="340" y="260" width="100" height="100" />
            <rect x="440" y="260" width="100" height="100" />
        </g>
        
        <!-- 地雷图标 -->
        <g transform="translate(190, 210)">
            <circle cx="0" cy="0" r="40" fill="#333" />
            <circle cx="0" cy="0" r="35" fill="#000" />
            <circle cx="-10" cy="-10" r="8" fill="#fff" />
            
            <!-- 触角 -->
            <g stroke="#333" stroke-width="5">
                <line x1="0" y1="-45" x2="0" y2="-60" />
                <line x1="32" y1="-32" x2="42" y2="-42" />
                <line x1="45" y1="0" x2="60" y2="0" />
                <line x1="32" y1="32" x2="42" y2="42" />
                <line x1="0" y1="45" x2="0" y2="60" />
                <line x1="-32" y1="32" x2="-42" y2="42" />
                <line x1="-45" y1="0" x2="-60" y2="0" />
                <line x1="-32" y1="-32" x2="-42" y2="-42" />
            </g>
        </g>
        
        <!-- 数字1 -->
        <text x="90" y="320" font-family="Arial, sans-serif" font-size="80" font-weight="bold" fill="blue" text-anchor="middle" dominant-baseline="middle">1</text>
        
        <!-- 数字2 -->
        <text x="290" y="120" font-family="Arial, sans-serif" font-size="80" font-weight="bold" fill="green" text-anchor="middle" dominant-baseline="middle">2</text>
        
        <!-- 数字3 -->
        <text x="390" y="220" font-family="Arial, sans-serif" font-size="80" font-weight="bold" fill="red" text-anchor="middle" dominant-baseline="middle">3</text>
        
        <!-- 旗帜 -->
        <g transform="translate(440, 310)">
            <rect x="-8" y="-40" width="16" height="80" fill="#333" />
            <polygon points="-8,-40 42,-10 -8,20" fill="#e74c3c" />
        </g>
    </g>
    
    <!-- 底部文字 -->
    <text x="600" y="550" font-family="Arial, sans-serif" font-size="36" fill="#ffffff" text-anchor="middle">简单好玩的经典扫雷游戏，重温Windows经典！</text>
</svg> 